ply
format ascii 1.0
comment file created by Microsoft Kinect Fusion
element vertex 8
property float x
property float y
property float z
property uchar red
property uchar green
property uchar blue
element face 12
property list uchar int vertex_index
end_header
-0.25 -0.25 -0.8 254 0 0
-0.15 -0.25 -0.8 0 254 0
-0.15 -0.15 -0.8 0 0 254
-0.25 -0.15 -0.8 254 254 254
-0.25 -0.25 -0.9 254 0 0
-0.15 -0.25 -0.9 0 254 0
-0.15 -0.15 -0.9 0 0 254
-0.25 -0.15 -0.9 254 254 254
3 0 1 2
3 2 3 0
3 3 2 6
3 6 7 3
3 7 6 5
3 5 4 7
3 4 5 1
3 1 0 4
3 4 0 3
3 3 7 4
3 1 5 6
3 6 2 1

